<svg xmlns="http://www.w3.org/2000/svg" xmlns:svg="http://www.w3.org/2000/svg" id="svg2" width="30" height="30" version="1.1" viewBox="0 0 276 276" xml:space="preserve"><metadata id="metadata8"/><defs id="defs6"><clipPath id="clipPath18" clipPathUnits="userSpaceOnUse"><path id="path16" d="M 0,800 H 800 V 0 H 0 Z"/></clipPath></defs><g id="g10" transform="matrix(1.3333333,0,0,-1.3333333,-398.3522,928.28029)"><g id="g12" transform="translate(2.5702576,82.614887)"><circle id="path930" cx="399.715" cy="-510.095" r="102.692" fill="#fff" fill-opacity="1" stroke="none" stroke-dasharray="none" stroke-dashoffset="0" stroke-linecap="butt" stroke-linejoin="miter" stroke-miterlimit="4" stroke-opacity="1" stroke-width=".659" opacity="1" transform="scale(1,-1)" vector-effect="none"/><g id="g917" transform="translate(4.931459e-6,39.355242)"><g id="g44" transform="translate(386.7049,451.9248)"><path id="path46" fill="#2d70de" fill-opacity="1" fill-rule="nonzero" stroke="none" d="m 0,0 c 0.087,-2.62 -1.634,-4.953 -4.163,-5.646 -7.609,-2.083 -14.615,-5.497 -21.089,-10.181 -5.102,-3.691 -10.224,-7.371 -15.52,-10.769 -3.718,-2.385 -7.711,-4.257 -12.438,-3.601 -6.255,0.868 -10.629,4.828 -12.313,11.575 -0.619,2.478 -1.169,4.997 -1.457,7.53 -0.47,4.135 -0.699,8.297 -1.031,12.448 0.32,18.264 5.042,35.123 15.47,50.223 6.695,9.693 16.067,14.894 27.708,16.085 4.103,0.419 8.134,0.365 12.108,-0.059 3.313,-0.353 5.413,-3.475 5.034,-6.785 -0.039,-0.337 -0.059,-0.682 -0.059,-1.033 0,-0.2 0.008,-0.396 0.021,-0.593 -0.03,-1.164 -0.051,-1.823 -0.487,-3.253 -0.356,-1.17 -1.37,-3.116 -4.045,-3.504 h -10.267 c -3.264,0 -5.91,-3.291 -5.91,-7.35 0,-4.059 2.646,-7.35 5.91,-7.35 H 4.303 C 6.98,37.35 7.996,35.403 8.352,34.232 8.81,32.726 8.809,32.076 8.843,30.787 8.837,30.655 8.834,30.521 8.834,30.387 c 0,-4.059 2.646,-7.349 5.911,-7.349 h 3.7 c 3.264,0 5.911,-3.292 5.911,-7.35 0,-4.06 -2.647,-7.351 -5.911,-7.351 H 5.878 c -3.264,0 -5.911,-3.291 -5.911,-7.35 z"/></g><g id="g48" transform="translate(467.9637,499.8276)"><path id="path50" fill="#17252e" fill-opacity="1" fill-rule="nonzero" stroke="none" d="m 0,0 c -8.346,13.973 -20.665,20.377 -36.728,20.045 -1.862,-0.038 -3.708,-0.16 -5.539,-0.356 -1.637,-0.175 -2.591,-2.02 -1.739,-3.428 0.736,-1.219 1.173,-2.732 1.173,-4.377 0,-4.059 -2.646,-7.35 -5.912,-7.35 h -17.733 c -3.264,0 -5.911,-3.291 -5.911,-7.35 0,-4.059 2.647,-7.35 5.911,-7.35 h 13.628 c 3.142,0 5.71,-3.048 5.899,-6.895 l 0.013,0.015 c 0.082,-1.94 -0.032,-2.51 0.52,-4.321 0.354,-1.165 1.359,-3.095 4.001,-3.498 h 14.69 c 3.265,0 5.911,-3.292 5.911,-7.35 0,-4.06 -2.646,-7.351 -5.911,-7.351 h -23.349 c -2.838,-0.311 -3.897,-2.33 -4.263,-3.532 -0.434,-1.426 -0.456,-2.085 -0.485,-3.246 0.011,-0.189 0.019,-0.379 0.019,-0.572 0,-0.341 -0.019,-0.677 -0.055,-1.006 -0.281,-2.535 1.584,-4.771 4.057,-5.396 8.245,-2.084 15.933,-5.839 23.112,-11.209 5.216,-3.901 10.678,-7.497 16.219,-10.922 2.152,-1.331 4.782,-2.351 7.279,-2.578 8.033,-0.731 13.657,3.531 15.686,11.437 1.442,5.615 2.093,11.343 2.244,17.134 C 13.198,-31.758 9.121,-15.269 0,0"/></g></g></g></g></svg>